{"asset": {"version": "2.0", "generator": "CS460 Magic Fingers"}, "accessors": [{"bufferView": 0, "byteOffset": 0, "componentType": 5126, "count": 4.0, "type": "VEC3", "max": [10.0, 10.0, 10.0], "min": [0.0, 0.0, 0.0]}, {"bufferView": 1, "byteOffset": 0, "componentType": 5123, "count": 15, "type": "SCALAR", "max": [3], "min": [0]}], "bufferViews": [{"buffer": 0, "byteOffset": 0, "byteLength": 48, "target": 34962}, {"buffer": 1, "byteOffset": 0, "byteLength": 30, "target": 34963}], "buffers": [{"uri": "data:application/octet-stream;base64,", "byteLength": 48}, {"uri": "data:application/octet-stream;base64,", "byteLength": 30}], "meshes": [{"primitives": [{"mode": 4, "attributes": {"POSITION": 0}, "indices": 1}]}], "nodes": [{"mesh": 0}], "scenes": [{"nodes": [0]}], "scene": 0}