{
  "accessors": [
    {
      "bufferView": 2,
      "componentType": 5126,
      "count": 4289,
      "max": [
        0.9598370790481567,
        2.23659610748291,
        1.3340518474578857
      ],
      "min": [
        -0.7494919896125793,
        0.10076311975717545,
        -1.3340518474578857
      ],
      "type": "VEC3"
    },
    {
      "bufferView": 2,
      "byteOffset": 51468,
      "componentType": 5126,
      "count": 4289,
      "max": [
        0.9517484307289124,
        0.9999833106994629,
        0.9113541841506958
      ],
      "min": [
        -0.9999566078186035,
        -0.997308611869812,
        -0.9994814395904541
      ],
      "type": "VEC3"
    },
    {
      "bufferView": 1,
      "componentType": 5126,
      "count": 4289,
      "max": [
        0.0,
        0.0
      ],
      "min": [
        0.0,
        0.0
      ],
      "type": "VEC2"
    },
    {
      "bufferView": 0,
      "componentType": 5125,
      "count": 25344,
      "type": "SCALAR"
    },
    {
      "bufferView": 2,
      "byteOffset": 102936,
      "componentType": 5126,
      "count": 797,
      "max": [
        0.45204436779022217,
        2.0031650066375732,
        0.5247042179107666
      ],
      "min": [
        0.2860226631164551,
        1.837294340133667,
        0.35868245363235474
      ],
      "type": "VEC3"
    },
    {
      "bufferView": 2,
      "byteOffset": 112500,
      "componentType": 5126,
      "count": 797,
      "max": [
        0.9956441521644592,
        1.0,
        0.9956441521644592
      ],
      "min": [
        -0.9956441521644592,
        -0.9951813220977783,
        -0.9956441521644592
      ],
      "type": "VEC3"
    },
    {
      "bufferView": 1,
      "byteOffset": 34312,
      "componentType": 5126,
      "count": 797,
      "max": [
        1.0000001192092896,
        1.0
      ],
      "min": [
        0.0,
        0.034239333122968674
      ],
      "type": "VEC2"
    },
    {
      "bufferView": 0,
      "byteOffset": 101376,
      "componentType": 5125,
      "count": 3105,
      "type": "SCALAR"
    }
  ],
  "asset": {
    "extras": {
      "author": "321_Blender (https://sketchfab.com/321_Blender)",
      "license": "CC-BY-4.0 (http://creativecommons.org/licenses/by/4.0/)",
      "source": "https://sketchfab.com/3d-models/mr-lunts-elf-hat-6a6a543093fc4b2e9a9ee84be59356fc",
      "title": "Mr Lunt's Elf Hat"
    },
    "generator": "Sketchfab-12.12.0",
    "version": "2.0"
  },
  "bufferViews": [
    {
      "buffer": 0,
      "byteLength": 113796,
      "name": "floatBufferViews",
      "target": 34963
    },
    {
      "buffer": 0,
      "byteLength": 40688,
      "byteOffset": 113796,
      "byteStride": 8,
      "name": "floatBufferViews",
      "target": 34962
    },
    {
      "buffer": 0,
      "byteLength": 122064,
      "byteOffset": 154484,
      "byteStride": 12,
      "name": "floatBufferViews",
      "target": 34962
    }
  ],
  "buffers": [
    {
      "byteLength": 276548,
      "uri": "scene.bin"
    }
  ],
  "materials": [
    {
      "doubleSided": true,
      "name": "Material.001",
      "pbrMetallicRoughness": {
        "baseColorFactor": [
          0.042311410620809654,
          0.2704977910130658,
          0.04666508633688005,
          1.0
        ],
        "metallicFactor": 0.5
      }
    },
    {
      "doubleSided": true,
      "name": "Material.008",
      "pbrMetallicRoughness": {
        "baseColorFactor": [
          0.5,
          0.34693588064599495,
          0.1290914264607979,
          1.0
        ],
        "roughnessFactor": 0.5
      }
    }
  ],
  "meshes": [
    {
      "name": "Object_0",
      "primitives": [
        {
          "attributes": {
            "NORMAL": 1,
            "POSITION": 0,
            "TEXCOORD_0": 2
          },
          "indices": 3,
          "material": 0,
          "mode": 4
        }
      ]
    },
    {
      "name": "Object_1",
      "primitives": [
        {
          "attributes": {
            "NORMAL": 5,
            "POSITION": 4,
            "TEXCOORD_0": 6
          },
          "indices": 7,
          "material": 1,
          "mode": 4
        }
      ]
    }
  ],
  "nodes": [
    {
      "children": [
        1
      ],
      "matrix": [
        1.0,
        0.0,
        0.0,
        0.0,
        0.0,
        2.220446049250313e-16,
        -1.0,
        0.0,
        0.0,
        1.0,
        2.220446049250313e-16,
        0.0,
        0.0,
        0.0,
        0.0,
        1.0
      ],
      "name": "Sketchfab_model"
    },
    {
      "children": [
        2
      ],
      "name": "root"
    },
    {
      "children": [
        3
      ],
      "matrix": [
        1.0,
        0.0,
        0.0,
        0.0,
        0.0,
        2.220446049250313e-16,
        1.0,
        0.0,
        0.0,
        -1.0,
        2.220446049250313e-16,
        0.0,
        0.0,
        0.0,
        0.0,
        1.0
      ],
      "name": "GLTF_SceneRootNode"
    },
    {
      "children": [
        4,
        5
      ],
      "matrix": [
        2.380362033843994,
        0.0,
        0.0,
        0.0,
        0.0,
        2.380362033843994,
        0.0,
        0.0,
        0.0,
        0.0,
        2.380362033843994,
        0.0,
        0.03473230078816414,
        2.2133755683898926,
        0.0,
        1.0
      ],
      "name": "Circle.002_0"
    },
    {
      "mesh": 0,
      "name": "Object_4"
    },
    {
      "mesh": 1,
      "name": "Object_5"
    }
  ],
  "scene": 0,
  "scenes": [
    {
      "name": "Sketchfab_Scene",
      "nodes": [
        0
      ]
    }
  ]
}
